<svg width="199" height="41" viewBox="0 0 199 41" fill="none" xmlns="http://www.w3.org/2000/svg">
<path d="M6.77797 31.0002H0.200195V25.0002L8.68908 0.0668945H17.6669L26.1558 24.9558V31.0002H19.578V25.7113L18.8669 23.578H7.48908L6.77797 25.7113V31.0002ZM13.178 5.48912L8.82242 18.2002H17.5335L13.178 5.48912Z" fill="#0A0A0C"/>
<path d="M31.0755 31.0002V0.0668945H37.6533V31.0002H31.0755Z" fill="#0A0A0C"/>
<path d="M49.1825 31.0002H42.6047V25.0002L51.0936 0.0668945H60.0714L68.5603 24.9558V31.0002H61.9825V25.7113L61.2714 23.578H49.8936L49.1825 25.7113V31.0002ZM55.5825 5.48912L51.2269 18.2002H59.938L55.5825 5.48912Z" fill="#FF0000"/>
<path d="M72.7689 32.0225H78.8134V34.8225H87.1689V29.4891H76.2801L72.4134 25.6224V10.778L76.2801 6.86689H85.1245L87.8801 9.62245V6.86689H93.5245V36.2891L89.6134 40.1558H76.6356L72.7689 36.2891V32.0225ZM78.7689 12.778V24.3336H87.1689V14.2447L85.5245 12.778H78.7689Z" fill="#0A0A0C"/>
<path d="M113.678 25.8447V22.6002H119.811V27.0891L115.944 31.0002H103.322L99.4554 27.0891V10.778L103.322 6.86689H115.944L119.811 10.778V20.1113H105.678V25.8447H113.678ZM113.678 12.0225H105.678V16.9113H113.678V12.0225Z" fill="#0A0A0C"/>
<path d="M131.595 31.0002H125.24V6.86689H130.884V9.62245L133.595 6.86689H142.44L146.351 10.778V31.0002H139.995V12.778H133.24L131.595 14.2447V31.0002Z" fill="#0A0A0C"/>
<path d="M165.926 25.2225V21.3558H172.06V27.0891L168.193 31.0002H155.926L152.06 27.0891V10.778L155.926 6.86689H168.193L172.06 10.778V16.4669H165.926V12.6002H158.282V25.2225H165.926Z" fill="#0A0A0C"/>
<path d="M177.413 32.0225H183.502V34.8225H191.857V29.4891H181.102L177.191 25.6224V6.86689H183.546V24.0225H191.857V6.86689H198.213V36.2891L194.302 40.1558H181.324L177.413 36.2891V32.0225Z" fill="#0A0A0C"/>
</svg>
