<svg width="770" height="690" viewBox="0 0 770 690" fill="none" xmlns="http://www.w3.org/2000/svg">
<path fill-rule="evenodd" clip-rule="evenodd" d="M770 0H0V690H770V0ZM602.927 42.7897L755.634 307.224C762.024 318.841 765.25 331.94 764.985 345.203C764.72 358.465 760.975 371.424 754.125 382.776L601.419 647.21C594.807 658.684 585.3 668.215 573.851 674.845C562.401 681.476 549.413 684.973 536.189 684.987H234.547C221.069 685.241 207.768 681.871 196.03 675.228C184.293 668.584 174.547 658.909 167.809 647.21L15.1031 382.776C8.48444 371.291 5 358.262 5 345C5 331.738 8.48444 318.709 15.1031 307.224L167.809 42.7897C174.547 31.0912 184.293 21.4163 196.03 14.7724C207.768 8.1285 221.069 4.75856 234.547 5.01346H536.189C549.668 4.75856 562.969 8.1285 574.706 14.7724C586.444 21.4163 596.189 31.0912 602.927 42.7897Z" fill="#FFF9ED"/>
</svg>
